<?xml version="1.0" standalone="no"?>
<!DOCTYPE svg PUBLIC "-//W3C//DTD SVG 20010904//EN"
 "http://www.w3.org/TR/2001/REC-SVG-20010904/DTD/svg10.dtd">
<svg version="1.0" xmlns="http://www.w3.org/2000/svg"
 width="162.000000pt" height="162.000000pt" viewBox="0 0 162.000000 162.000000"
 preserveAspectRatio="xMidYMid meet">
<metadata>
Created by potrace 1.11, written by Peter Selinger 2001-2013
</metadata>
<g transform="translate(0.000000,162.000000) scale(0.100000,-0.100000)"
fill="#000000" stroke="none">
<path d="M645 1165 c-22 -7 -53 -16 -68 -19 -16 -4 -31 -16 -36 -29 -6 -17
-16 -22 -41 -22 -40 0 -64 -29 -40 -48 12 -9 15 -36 15 -113 1 -70 5 -107 14
-118 12 -14 51 -16 321 -16 266 0 309 2 320 15 9 11 14 51 14 120 1 74 5 106
14 110 6 2 12 13 12 24 0 22 -15 29 -51 25 -20 -2 -29 4 -37 22 -7 13 -24 26
-39 30 -15 3 -48 13 -72 20 -55 18 -269 18 -326 -1z m349 -44 c20 -19 36 -39
36 -43 0 -5 -99 -8 -220 -8 -121 1 -220 5 -220 9 0 10 62 68 80 73 8 3 77 5
152 4 l137 -1 35 -34z m-422 -23 c-12 -13 -22 -17 -22 -11 0 15 31 46 38 38 3
-3 -4 -15 -16 -27z m493 5 c9 -25 0 -25 -24 1 -22 24 -22 24 -3 19 11 -3 23
-12 27 -20z m-555 -39 c0 -2 -9 -4 -21 -4 -11 0 -18 4 -14 10 5 8 35 3 35 -6z
m635 6 c3 -6 -4 -10 -17 -10 -18 0 -20 2 -8 10 19 12 18 12 25 0z m-495 -47
c0 -23 -3 -24 -52 -23 -79 3 -79 4 -68 -25 8 -20 6 -25 -5 -25 -22 0 -38 46
-25 71 13 24 70 38 123 31 21 -3 27 -10 27 -29z m296 -19 c-3 -25 -8 -49 -11
-54 -2 -4 -60 -7 -127 -6 -121 1 -122 1 -129 26 -4 14 -7 37 -8 53 l-1 27 141
0 142 0 -7 -46z m153 36 c10 -5 21 -16 25 -25 8 -22 -11 -65 -29 -65 -11 0
-13 5 -5 25 11 28 10 28 -72 26 -45 -1 -48 0 -48 24 0 24 3 25 56 25 30 0 63
-4 73 -10z m-449 -69 c0 -14 -22 -19 -58 -14 -52 8 -48 23 7 23 28 0 51 -4 51
-9z m415 0 c-16 -15 -88 -18 -92 -3 -3 8 10 12 48 12 33 0 49 -4 44 -9z m-232
-47 c158 0 288 -2 288 -6 4 -27 2 -48 -4 -48 -4 0 -16 0 -27 0 -11 0 -20 7
-20 15 0 8 -3 15 -7 15 -13 1 -487 1 -500 1 -8 -1 -13 -16 -13 -41 0 -33 -3
-40 -19 -40 -11 0 -22 4 -25 9 -4 5 3 7 14 4 15 -4 20 0 20 15 0 24 -16 37
-26 21 -11 -18 -21 7 -16 41 4 25 7 28 26 20 12 -4 151 -7 309 -6z m-135 -51
c-11 -3 -18 -14 -18 -29 0 -22 -3 -24 -55 -24 -54 0 -55 0 -55 30 l0 30 73 -1
c39 -1 64 -3 55 -6z m189 1 c-3 -3 -12 -4 -19 -1 -8 3 -5 6 6 6 11 1 17 -2 13
-5z m163 -24 c0 -30 -1 -30 -55 -30 -51 0 -55 2 -55 24 0 13 -6 27 -12 29 -7
3 17 6 55 6 l67 1 0 -30z m-130 -15 c0 -13 -16 -15 -107 -13 -74 2 -108 7
-111 16 -3 9 23 12 107 12 93 0 111 -2 111 -15z m195 -4 c-8 -13 -45 -15 -45
-2 0 5 9 7 20 4 12 -3 20 0 20 8 0 7 3 10 6 6 3 -3 3 -10 -1 -16z"/>
<path d="M703 1023 c7 -7 39 -13 72 -14 92 -3 120 0 138 14 14 10 -4 12 -102
12 -94 0 -118 -3 -108 -12z"/>
<path d="M85 655 c-32 -31 -33 -82 -4 -119 18 -23 28 -27 63 -24 28 2 41 8 41
18 0 11 -9 14 -31 12 -37 -4 -64 19 -64 53 0 35 28 58 61 51 30 -6 49 18 23
28 -32 12 -66 5 -89 -19z"/>
<path d="M301 658 c-5 -13 -18 -47 -30 -76 -12 -29 -21 -57 -21 -62 0 -19 29
-10 35 10 5 15 15 20 42 20 26 0 36 -5 40 -20 3 -11 13 -20 23 -20 18 0 18 3
-2 57 -39 112 -67 141 -87 91z m44 -55 c5 -20 3 -23 -19 -23 -24 0 -24 2 -14
31 11 32 21 29 33 -8z"/>
<path d="M469 679 c-1 -2 -2 -41 -3 -86 -2 -73 0 -83 15 -83 12 0 17 6 14 18
-2 10 1 25 6 33 7 11 15 7 37 -19 42 -50 72 -41 32 11 -16 19 -17 26 -6 30 18
7 26 53 12 73 -11 14 -104 34 -107 23z m79 -41 c15 -15 -3 -38 -29 -38 -22 0
-31 13 -23 34 7 19 35 21 52 4z"/>
<path d="M755 664 c-25 -25 -14 -57 25 -76 47 -24 46 -43 -2 -42 -39 1 -53
-18 -22 -30 83 -32 132 47 54 86 -43 22 -46 43 -5 43 33 0 51 15 32 27 -21 13
-65 9 -82 -8z"/>
<path d="M900 666 c0 -9 12 -16 28 -18 26 -3 27 -5 27 -68 0 -51 3 -65 15 -65
12 0 15 14 14 68 0 66 0 67 26 67 17 0 27 5 27 15 0 12 -15 15 -69 15 -52 0
-68 -3 -68 -14z"/>
<path d="M1090 676 c0 -3 13 -29 29 -58 17 -32 28 -64 26 -80 -2 -21 1 -28 14
-28 13 0 17 7 16 28 -1 15 11 51 26 79 33 61 34 63 14 63 -8 0 -23 -16 -33
-36 l-19 -37 -22 37 c-13 20 -29 36 -37 36 -8 0 -14 -2 -14 -4z"/>
<path d="M1290 595 l0 -85 53 0 c41 0 54 4 54 15 0 11 -11 15 -39 15 l-38 0 0
70 c0 56 -3 70 -15 70 -12 0 -15 -16 -15 -85z"/>
<path d="M1460 595 l0 -86 55 3 c64 3 74 22 15 26 -32 3 -40 7 -40 23 0 15 7
19 35 19 24 0 35 5 35 15 0 10 -11 15 -35 15 -28 0 -35 4 -35 20 0 17 7 20 40
20 29 0 40 4 40 15 0 12 -13 15 -55 15 l-55 0 0 -85z"/>
</g>
</svg>
