<svg width="52" height="52" viewBox="0 0 52 52" xmlns="http://www.w3.org/2000/svg">
<path fill-rule="evenodd" clip-rule="evenodd" d="M36.2339 20.4936H13.3557H4.26996C3.81588 20.4936 3.40231 20.68 3.10233 20.98V20.9785V20.98C2.80409 21.2777 2.61914 21.691 2.61914 22.147V41.3508C2.61914 41.8047 2.80561 42.2184 3.10512 42.5181C3.4051 42.8179 3.81867 43.0044 4.27275 43.0044H36.2367C36.6907 43.0044 37.1044 42.8179 37.4042 42.5181C37.7039 42.2184 37.8904 41.8047 37.8904 41.3508V32.2648V22.147C37.8904 21.7072 37.7183 21.3074 37.4388 21.0126L37.4041 20.9801C37.1043 20.6801 36.6908 20.4937 36.2367 20.4937L36.2339 20.4936ZM14.11 12.0259H49.3813V10.6536C49.3813 10.1995 49.1948 9.78589 48.8953 9.48616C48.5953 9.18639 48.1816 9 47.7277 9H15.7637C15.3095 9 14.896 9.18639 14.5962 9.48616C14.2965 9.78589 14.11 10.1995 14.11 10.6536V12.0259ZM14.11 18.9852H36.2339C37.1044 18.9852 37.8953 19.3408 38.4679 19.9134L38.5124 19.9624C39.0585 20.5324 39.3959 21.3032 39.3959 22.1471V31.5105H47.7273C48.1814 31.5105 48.5949 31.3241 48.8949 31.0244V31.0258V31.0244C49.1931 30.7265 49.3781 30.3132 49.3781 29.8572V13.5345H14.1068L14.11 18.9852ZM11.1293 30.6713V27.7263H8.18422V30.6713H11.1293ZM7.68112 35.7717H11.8477C12.2642 35.7717 12.602 36.1096 12.602 36.5261C12.602 36.9426 12.2642 37.2805 11.8477 37.2805H7.68112C7.26483 37.2805 6.92699 36.9426 6.92699 36.5261C6.92699 36.1096 7.26483 35.7717 7.68112 35.7717ZM18.9231 35.7717C19.3396 35.7717 19.6775 36.1096 19.6775 36.5261C19.6775 36.9426 19.3396 37.2805 18.9231 37.2805H14.7564C14.3399 37.2805 14.0021 36.9426 14.0021 36.5261C14.0021 36.1096 14.3399 35.7717 14.7564 35.7717H18.9231ZM21.0775 36.5261C21.0775 36.1096 21.4153 35.7717 21.8319 35.7717H25.9984C26.4149 35.7717 26.7527 36.1096 26.7527 36.5261C26.7527 36.9426 26.4149 37.2805 25.9984 37.2805H21.8319C21.4153 37.2805 21.0775 36.9426 21.0775 36.5261ZM33.0738 35.7717C33.4903 35.7717 33.8282 36.1096 33.8282 36.5261C33.8282 36.9426 33.4903 37.2805 33.0738 37.2805H28.9073C28.4908 37.2805 28.153 36.9426 28.153 36.5261C28.153 36.1096 28.4908 35.7717 28.9073 35.7717H33.0738ZM7.42994 26.2175H11.8836C12.3001 26.2175 12.6379 26.5554 12.6379 26.9719V31.4256C12.6379 31.842 12.3001 32.1799 11.8836 32.1799H7.42994C7.01358 32.1799 6.67581 31.842 6.67581 31.4256V26.9719C6.67581 26.5554 7.01358 26.2175 7.42994 26.2175Z"/>
</svg>
