<svg width="52" height="52" viewBox="0 0 52 52"  xmlns="http://www.w3.org/2000/svg">
<path d="M40.8451 23.6678C40.8343 23.0286 40.6836 22.3995 40.4035 21.8247C40.1235 21.25 39.7209 20.7436 39.2242 20.3411C38.5497 19.667 38.0175 19.1348 38.0175 18.0144C38.0175 16.8939 38.5497 16.3621 39.2242 15.6887C39.7209 15.2862 40.1235 14.7798 40.4035 14.205C40.6835 13.6303 40.8343 13.0012 40.8451 12.3619C40.8451 12.1744 40.7706 11.9946 40.638 11.8621C40.5055 11.7295 40.3257 11.655 40.1382 11.655H25.2933V43.4654C25.2934 44.1244 25.1615 44.7766 24.9053 45.3837C24.6491 45.9907 24.2739 46.5403 23.8018 46.9999H40.1382C40.3257 46.9999 40.5055 46.9255 40.638 46.7929C40.7706 46.6603 40.8451 46.4805 40.8451 46.293C40.8343 45.6535 40.6836 45.0241 40.4035 44.449C40.1235 43.8739 39.7209 43.3672 39.2242 42.9643C38.5504 42.2898 38.0175 41.7569 38.0175 40.6351C38.0175 39.5133 38.5497 38.981 39.2242 38.3063C39.7291 37.9109 40.1375 37.4059 40.4183 36.8293C40.6991 36.2528 40.8451 35.6198 40.8451 34.9785C40.8451 34.3372 40.6991 33.7043 40.4183 33.1278C40.1375 32.5512 39.7291 32.0461 39.2242 31.6508C38.5497 30.9767 38.0175 30.4444 38.0175 29.3237C38.0175 28.2029 38.5497 27.67 39.2242 26.9956C39.7209 26.5929 40.1235 26.0863 40.4035 25.5114C40.6836 24.9365 40.8343 24.3072 40.8451 23.6678Z" />
<path d="M22.8419 7.0303C22.1783 6.3705 21.2807 6.00009 20.345 6H14.6898C13.7527 6.0011 12.8543 6.37384 12.1917 7.03645C11.5291 7.69905 11.1564 8.59742 11.1553 9.53449V43.4656C11.1547 43.9299 11.2457 44.3898 11.4231 44.8189C11.6006 45.248 11.8609 45.6378 12.1892 45.9662C12.5175 46.2945 12.9074 46.5548 13.3365 46.7322C13.7656 46.9096 14.2254 47.0007 14.6898 47.0001H20.345C21.282 46.999 22.1804 46.6263 22.843 45.9636C23.5056 45.301 23.8783 44.4027 23.8794 43.4656V9.53449C23.8789 8.59528 23.5057 7.69466 22.8419 7.0303ZM20.345 45.5863H14.6898C14.1273 45.5863 13.5879 45.3629 13.1902 44.9652C12.7925 44.5675 12.5691 44.028 12.5691 43.4656C12.5691 42.9032 12.7925 42.3638 13.1902 41.966C13.5879 41.5683 14.1273 41.3449 14.6898 41.3449H20.345C20.9074 41.3449 21.4468 41.5683 21.8445 41.966C22.2422 42.3638 22.4656 42.9032 22.4656 43.4656C22.4656 44.028 22.2422 44.5675 21.8445 44.9652C21.4468 45.3629 20.9074 45.5863 20.345 45.5863Z" />
<path d="M20.3445 42.7588H14.6893C14.5018 42.7588 14.322 42.8333 14.1895 42.9658C14.0569 43.0984 13.9824 43.2782 13.9824 43.4657C13.9824 43.6532 14.0569 43.833 14.1895 43.9655C14.322 44.0981 14.5018 44.1726 14.6893 44.1726H20.3445C20.532 44.1726 20.7118 44.0981 20.8444 43.9655C20.9769 43.833 21.0514 43.6532 21.0514 43.4657C21.0514 43.2782 20.9769 43.0984 20.8444 42.9658C20.7118 42.8333 20.532 42.7588 20.3445 42.7588Z" />
</svg>
