<svg width="52" height="52" viewBox="0 0 52 52"  xmlns="http://www.w3.org/2000/svg">
<path fill-rule="evenodd" clip-rule="evenodd" d="M20.878 7.1473C21.626 6.41202 22.633 6 23.6819 6H28.3181C29.367 6 30.374 6.41202 31.122 7.1473L36.8039 12.7321C37.569 13.4841 38 14.512 38 15.5848V44C38 45.1046 37.1046 46 36 46H16C14.8954 46 14 45.1046 14 44V15.5848C14 14.512 14.431 13.4841 15.1961 12.7321L20.878 7.1473ZM29.6522 13.6923C29.6522 11.7128 28.0139 10.1026 26 10.1026C23.9861 10.1026 22.3478 11.7128 22.3478 13.6923C22.3478 15.6718 23.9861 17.2821 26 17.2821C28.0139 17.2821 29.6522 15.6718 29.6522 13.6923ZM30.8547 29.4169C30.8547 31.3635 29.6116 32.9818 26.938 32.9818H24.194V34.1075H26.8442V35.3974H24.194V37.86H22.7399V35.3974H20.8402V34.1075H22.7399V32.9818H20.8402V31.6918H22.7399V25.8521H26.938C29.6116 25.8521 30.8547 27.4703 30.8547 29.4169ZM24.194 27.142V31.6918H26.938C28.6266 31.6918 29.424 30.7303 29.424 29.4169C29.424 28.1035 28.6266 27.142 26.938 27.142H24.194Z" />
</svg>
