<svg width="52" height="52" viewBox="0 0 52 52"  xmlns="http://www.w3.org/2000/svg">
<path d="M26 4C13.8725 4 4 13.8725 4 26C4 38.1275 13.8725 48 26 48C38.1275 48 48 38.1275 48 26C48 13.8725 38.1275 4 26 4ZM38.7783 38.705C38.7692 38.7233 38.7692 38.7417 38.7508 38.7508C38.7417 38.7692 38.7233 38.7692 38.705 38.7875C35.4417 42.0233 30.95 44.0308 26 44.0308C21.05 44.0308 16.5583 42.0233 13.295 38.7875C13.2767 38.7692 13.2583 38.7692 13.2492 38.7508C13.2308 38.7417 13.2308 38.7233 13.2217 38.705C9.97668 35.4417 7.96918 30.95 7.96918 26C7.96918 21.05 9.97668 16.5583 13.2217 13.295C13.2308 13.2767 13.2308 13.2583 13.2492 13.2492C13.2583 13.2308 13.2767 13.2308 13.295 13.2217C16.5583 9.97668 21.05 7.96918 26 7.96918C30.95 7.96918 35.4417 9.97668 38.705 13.2217C38.7233 13.2308 38.7417 13.2308 38.7508 13.2492C38.7692 13.2583 38.7692 13.2767 38.7783 13.295C42.0233 16.5583 44.0308 21.05 44.0308 26C44.0308 30.95 42.0233 35.4417 38.7783 38.705Z" />
<path d="M40.1536 25.0834H42.152C41.9411 21.3067 40.4378 17.8784 38.0636 15.2292L36.6611 16.6409C36.4778 16.815 36.2394 16.9067 36.0103 16.9067C35.7719 16.9067 35.5428 16.815 35.3595 16.6409C35.002 16.2834 35.002 15.7059 35.3595 15.3484L36.7711 13.9367C34.1219 11.5626 30.6936 10.0592 26.917 9.84839V11.8467C26.917 12.3509 26.5044 12.7634 26.0003 12.7634C25.4961 12.7634 25.0836 12.3509 25.0836 11.8467V9.84839C21.307 10.0592 17.8786 11.5626 15.2295 13.9367L16.6411 15.3484C16.9986 15.7059 16.9986 16.2834 16.6411 16.6409C16.4578 16.815 16.2287 16.9067 15.9903 16.9067C15.7611 16.9067 15.5228 16.815 15.3395 16.6409L13.937 15.2292C11.5628 17.8784 10.0594 21.3067 9.84863 25.0834H11.847C12.3511 25.0834 12.7636 25.4959 12.7636 26C12.7636 26.5042 12.3511 26.9167 11.847 26.9167H9.84863C10.0594 30.6934 11.5628 34.1217 13.937 36.7709L15.3395 35.3592C15.7061 35.0017 16.2836 35.0017 16.6411 35.3592C16.9986 35.7167 16.9986 36.2942 16.6411 36.6517L15.2295 38.0634C17.8786 40.4375 21.307 41.9409 25.0836 42.1517V40.1534C25.0836 39.6492 25.4961 39.2367 26.0003 39.2367C26.5044 39.2367 26.917 39.6492 26.917 40.1534V42.1517C30.6936 41.9409 34.1219 40.4375 36.7711 38.0634L35.3595 36.6517C35.002 36.2942 35.002 35.7167 35.3595 35.3592C35.7169 35.0017 36.2944 35.0017 36.6611 35.3592L38.0636 36.7709C40.4378 34.1217 41.9411 30.6934 42.152 26.9167H40.1536C39.6495 26.9167 39.237 26.5042 39.237 26C39.237 25.4959 39.6495 25.0834 40.1536 25.0834ZM31.8486 31.8484C31.6745 32.0226 31.4361 32.1142 31.207 32.1142C30.9686 32.1142 30.7303 32.0226 30.5561 31.8484L27.2928 28.5851C26.8986 28.7776 26.4678 28.8967 26.0003 28.8967C25.5328 28.8967 25.102 28.7776 24.7078 28.5851L18.7403 34.5526C18.5661 34.7359 18.3278 34.8184 18.0986 34.8184C17.8603 34.8184 17.6219 34.7359 17.4478 34.5526C17.0903 34.1951 17.0903 33.6175 17.4478 33.26L23.4153 27.2925C23.2228 26.8984 23.1037 26.4676 23.1037 26C23.1037 24.7259 23.9378 23.6534 25.0836 23.2684V15.4767C25.0836 14.9634 25.487 14.5601 26.0003 14.5601C26.5044 14.5601 26.917 14.9634 26.917 15.4767V23.2592C27.0453 23.305 27.1645 23.36 27.2928 23.415L28.3653 22.3426C28.7228 21.985 29.3003 21.985 29.6578 22.3426C30.0153 22.7001 30.0153 23.2776 29.6578 23.635L28.5853 24.7167C28.7778 25.1017 28.8969 25.5325 28.8969 26C28.8969 26.4676 28.7778 26.8984 28.5853 27.2834L31.8486 30.5467C32.2061 30.9042 32.2061 31.4909 31.8486 31.8484Z" />
<path d="M26.009 24.9368C25.9998 24.9368 25.9998 24.9368 25.9998 24.9368C25.9907 24.9368 25.9907 24.9368 25.9907 24.9368C25.404 24.9368 24.9365 25.4134 24.9365 26.0001C24.9365 26.2934 25.0556 26.5592 25.2482 26.7517C25.4407 26.9443 25.7065 27.0634 25.9998 27.0634C26.5865 27.0634 27.0631 26.5868 27.0631 26.0001C27.0631 25.4134 26.5865 24.9368 26.009 24.9368Z" />
</svg>
