<svg width="52" height="52" viewBox="0 0 52 52"  xmlns="http://www.w3.org/2000/svg">
<path d="M10.5078 35.9841V40.4104H14.8817C14.268 39.115 13.8091 37.6484 13.5952 35.9841H10.5078Z" />
<path d="M9.03191 40.4102V38.9348H5.06152L6.1681 41.148L5.06152 43.3611H12.7205V41.8857H10.5073C9.69364 41.8857 9.03191 41.2239 9.03191 40.4102Z" />
<path d="M46.9373 38.9348H42.9669V40.4102C42.9669 41.2239 42.3052 41.8857 41.4915 41.8857H39.2783V43.3611H46.9373L45.8307 41.148L46.9373 38.9348Z" />
<path d="M25.7171 11.7889C25.8733 11.9451 26.1266 11.9451 26.2828 11.7889L28.668 9.40373C28.8242 9.24752 29.0775 9.24752 29.2337 9.40373L30.4811 10.6512C30.7331 10.9032 31.164 10.7247 31.164 10.3683V5.2C31.164 5.08954 31.0744 5 30.964 5H21.0359C20.9255 5 20.8359 5.08954 20.8359 5.2V10.3683C20.8359 10.7247 21.2668 10.9032 21.5188 10.6512L22.7662 9.40373C22.9225 9.24752 23.1757 9.24752 23.3319 9.40373L25.7171 11.7889Z" />
<path d="M13.4585 25.4945L14.478 25.9165C20.5576 28.4284 25.3963 23.0121 25.4442 22.9568L25.9975 22.3245L26.5537 22.956C26.7514 23.1795 31.4603 28.4188 37.5206 25.9165L38.5409 25.4945V31.3578C38.5409 31.4682 38.6304 31.5578 38.7409 31.5578H42.7672C42.8776 31.5578 42.9672 31.4682 42.9672 31.3578V5.2C42.9672 5.08954 42.8776 5 42.7672 5H32.8392C32.7287 5 32.6392 5.08954 32.6392 5.2V13.93C32.6392 14.2864 32.2083 14.4649 31.9563 14.2129L29.2334 11.49C29.0772 11.3338 28.8239 11.3338 28.6677 11.49L26.2825 13.8752C26.1263 14.0314 25.8731 14.0314 25.7169 13.8752L23.3317 11.49C23.1755 11.3338 22.9222 11.3338 22.766 11.49L20.0431 14.2129C19.7911 14.4649 19.3603 14.2864 19.3603 13.93V5.2C19.3603 5.08954 19.2707 5 19.1603 5H9.23223C9.12177 5 9.03223 5.08954 9.03223 5.2V31.3578C9.03223 31.4682 9.12177 31.5578 9.23223 31.5578H13.2585C13.369 31.5578 13.4585 31.4682 13.4585 31.3578V25.4945Z" />
<path d="M17.8848 30.849V33.771C17.8848 41.222 24.6673 44.2149 26.0026 44.7313C27.3807 44.2127 34.1145 41.2899 34.1145 33.771V30.849C30.1604 31.133 27.1608 29.074 25.9996 28.1172C24.8385 29.0725 21.8478 31.1359 17.8848 30.849ZM31.4024 33.9515C31.5586 34.1077 31.5586 34.361 31.4024 34.5172L24.8071 41.1125C24.6508 41.2687 24.3976 41.2687 24.2414 41.1125L21.3346 38.2058C21.1784 38.0495 21.1784 37.7963 21.3346 37.6401L21.8121 37.1626C21.9683 37.0064 22.2215 37.0064 22.3778 37.1626L24.5242 39.3091L30.3593 33.474C30.5155 33.3178 30.7687 33.3178 30.9249 33.474L31.4024 33.9515Z" />
<path d="M25.9993 24.4854C24.5187 25.8664 20.2289 29.2296 14.9336 27.6428V33.8086C14.9336 44.1005 24.5719 47.3369 26.0023 47.7596C27.5058 47.3317 37.0651 44.1979 37.0651 33.8093V27.6435C31.7683 29.2267 27.4792 25.8664 25.9993 24.4854ZM35.5897 29.1639V33.771C35.5897 43.0515 26.3225 46.1868 26.2288 46.217L25.9993 46.2922L25.7699 46.217C25.6762 46.1868 16.409 43.0515 16.409 33.771V29.1639L17.2589 29.2953C21.9987 30.0286 25.4431 26.6439 25.4778 26.61L25.9971 26.0906L26.5194 26.6092C26.5541 26.6432 30.0243 30.0226 34.7391 29.2953L35.5897 29.1639Z" />
<path d="M41.4911 35.9841H38.4038C38.1898 37.6484 37.731 39.115 37.1172 40.4104H41.4911V35.9841Z" />
</svg>
