<svg width="20" height="20" viewBox="0 0 20 20"  xmlns="http://www.w3.org/2000/svg">
<path d="M10.033 1.66675C5.48301 1.66675 1.77467 5.37508 1.77467 9.92508C1.77467 11.3834 2.15801 12.8001 2.87467 14.0501L1.70801 18.3334L6.08301 17.1834C7.29134 17.8417 8.64967 18.1917 10.033 18.1917C14.583 18.1917 18.2913 14.4834 18.2913 9.93342C18.2913 7.72508 17.433 5.65008 15.8747 4.09175C14.3163 2.52508 12.2413 1.66675 10.033 1.66675ZM10.0413 3.05841C11.8747 3.05841 13.5913 3.77508 14.8913 5.07508C16.183 6.37508 16.8997 8.10008 16.8997 9.93342C16.8997 13.7167 13.8163 16.7917 10.033 16.7917C8.79967 16.7917 7.59134 16.4667 6.54134 15.8334L6.29134 15.6917L3.69134 16.3751L4.38301 13.8417L4.21634 13.5751C3.53301 12.5001 3.16634 11.2251 3.16634 9.92508C3.17467 6.14175 6.24967 3.05841 10.0413 3.05841ZM7.10801 6.10841C6.97467 6.10841 6.74967 6.15841 6.55801 6.36675C6.37467 6.57508 5.83301 7.08342 5.83301 8.09175C5.83301 9.10842 6.57467 10.0834 6.66634 10.2251C6.78301 10.3667 8.13301 12.4501 10.208 13.3334C10.6997 13.5584 11.083 13.6834 11.383 13.7751C11.8747 13.9334 12.3247 13.9084 12.683 13.8584C13.083 13.8001 13.8997 13.3584 14.0747 12.8751C14.2497 12.3917 14.2497 11.9834 14.1997 11.8917C14.1413 11.8084 14.008 11.7584 13.7997 11.6667C13.5913 11.5501 12.5747 11.0501 12.3913 10.9834C12.1997 10.9167 12.083 10.8834 11.9247 11.0834C11.7913 11.2917 11.3913 11.7584 11.2747 11.8917C11.1497 12.0334 11.033 12.0501 10.833 11.9501C10.6163 11.8417 9.94967 11.6251 9.16634 10.9251C8.54967 10.3751 8.14134 9.70008 8.01634 9.49175C7.91634 9.29175 8.00801 9.16675 8.10801 9.07508C8.19967 8.98342 8.33301 8.83342 8.41634 8.70842C8.52467 8.59175 8.55801 8.50008 8.62467 8.36675C8.69134 8.22508 8.65801 8.10841 8.60801 8.00841C8.55801 7.91675 8.14134 6.88341 7.96634 6.47508C7.79967 6.07508 7.63301 6.12508 7.49967 6.11675C7.38301 6.11675 7.24967 6.10841 7.10801 6.10841Z" />
</svg>
