<svg width="52" height="52" viewBox="0 0 52 52" fill="none" xmlns="http://www.w3.org/2000/svg">
<path d="M14.75 34.875C15.1642 34.875 15.5 34.5392 15.5 34.125C15.5 33.7108 15.1642 33.375 14.75 33.375C14.3358 33.375 14 33.7108 14 34.125C14 34.5392 14.3358 34.875 14.75 34.875Z" fill="#3E50F3"/>
<path d="M37.25 34.875C37.6642 34.875 38 34.5392 38 34.125C38 33.7108 37.6642 33.375 37.25 33.375C36.8358 33.375 36.5 33.7108 36.5 34.125C36.5 34.5392 36.8358 34.875 37.25 34.875Z" fill="#3E50F3"/>
<path d="M32 33.375H20V34.875H32V33.375Z" fill="#3E50F3"/>
<path d="M43.625 35.25C44.2463 35.25 44.75 34.7463 44.75 34.125C44.75 33.5037 44.2463 33 43.625 33C43.0037 33 42.5 33.5037 42.5 34.125C42.5 34.7463 43.0037 35.25 43.625 35.25Z" fill="#3E50F3"/>
<path d="M8.375 35.25C8.99632 35.25 9.5 34.7463 9.5 34.125C9.5 33.5037 8.99632 33 8.375 33C7.75368 33 7.25 33.5037 7.25 34.125C7.25 34.7463 7.75368 35.25 8.375 35.25Z" fill="#3E50F3"/>
<path d="M47 27.75H46.625V26.25C46.6244 25.9182 46.5136 25.5961 46.3099 25.3341C46.1063 25.0722 45.8214 24.8854 45.5 24.803V8.25C45.5 7.65326 45.2629 7.08097 44.841 6.65901C44.419 6.23705 43.8467 6 43.25 6C42.6533 6 42.081 6.23705 41.659 6.65901C41.2371 7.08097 41 7.65326 41 8.25V24.803C40.6786 24.8854 40.3937 25.0722 40.1901 25.3341C39.9864 25.5961 39.8756 25.9182 39.875 26.25V27.75H12.125V26.25C12.1244 25.9182 12.0136 25.5961 11.8099 25.3341C11.6063 25.0722 11.3214 24.8854 11 24.803V8.25C11 7.65326 10.7629 7.08097 10.341 6.65901C9.91903 6.23705 9.34674 6 8.75 6C8.15326 6 7.58097 6.23705 7.15901 6.65901C6.73705 7.08097 6.5 7.65326 6.5 8.25V24.803C6.17861 24.8854 5.89371 25.0722 5.69007 25.3341C5.48643 25.5961 5.3756 25.9182 5.375 26.25V27.75H5C4.20462 27.7509 3.44208 28.0673 2.87967 28.6297C2.31725 29.1921 2.00089 29.9546 2 30.75V37.5C2.00089 38.2954 2.31725 39.0579 2.87967 39.6203C3.44208 40.1827 4.20462 40.4991 5 40.5H9.5V42H3.5C3.10218 42 2.72064 42.158 2.43934 42.4393C2.15804 42.7206 2 43.1022 2 43.5L2 45C2 45.3978 2.15804 45.7794 2.43934 46.0607C2.72064 46.342 3.10218 46.5 3.5 46.5H48.5C48.8978 46.5 49.2794 46.342 49.5607 46.0607C49.842 45.7794 50 45.3978 50 45V43.5C50 43.1022 49.842 42.7206 49.5607 42.4393C49.2794 42.158 48.8978 42 48.5 42H42.5V40.5H47C47.7954 40.4991 48.5579 40.1827 49.1203 39.6203C49.6827 39.0579 49.9991 38.2954 50 37.5V30.75C49.9991 29.9546 49.6827 29.1921 49.1203 28.6297C48.5579 28.0673 47.7954 27.7509 47 27.75ZM41.375 26.25H45.125V27.75H41.375V26.25ZM18.5 33.375C18.5 32.9772 18.658 32.5956 18.9393 32.3143C19.2206 32.033 19.6022 31.875 20 31.875H32C32.3978 31.875 32.7794 32.033 33.0607 32.3143C33.342 32.5956 33.5 32.9772 33.5 33.375V34.875C33.5 35.2728 33.342 35.6544 33.0607 35.9357C32.7794 36.217 32.3978 36.375 32 36.375H20C19.6022 36.375 19.2206 36.217 18.9393 35.9357C18.658 35.6544 18.5 35.2728 18.5 34.875V33.375ZM6.875 26.25H10.625V27.75H6.875V26.25ZM8.375 36.75C7.85582 36.75 7.34831 36.596 6.91663 36.3076C6.48495 36.0192 6.1485 35.6092 5.94982 35.1295C5.75114 34.6499 5.69915 34.1221 5.80044 33.6129C5.90173 33.1037 6.15173 32.636 6.51884 32.2688C6.88596 31.9017 7.35369 31.6517 7.86289 31.5504C8.37209 31.4492 8.89989 31.5011 9.37954 31.6998C9.8592 31.8985 10.2692 32.2349 10.5576 32.6666C10.846 33.0983 11 33.6058 11 34.125C10.9992 34.821 10.7224 35.4882 10.2303 35.9803C9.73817 36.4724 9.07095 36.7492 8.375 36.75ZM12.5 42H11V40.5H12.5V42ZM12.5 34.125C12.5 33.68 12.632 33.245 12.8792 32.875C13.1264 32.505 13.4778 32.2166 13.889 32.0463C14.3001 31.876 14.7525 31.8314 15.189 31.9182C15.6254 32.005 16.0263 32.2193 16.341 32.534C16.6557 32.8487 16.87 33.2496 16.9568 33.686C17.0436 34.1225 16.999 34.5749 16.8287 34.986C16.6584 35.3972 16.37 35.7486 16 35.9958C15.63 36.243 15.195 36.375 14.75 36.375C14.1535 36.3743 13.5816 36.1371 13.1598 35.7152C12.7379 35.2934 12.5007 34.7215 12.5 34.125ZM38 42H14V40.5H38V42ZM37.25 36.375C36.805 36.375 36.37 36.243 36 35.9958C35.63 35.7486 35.3416 35.3972 35.1713 34.986C35.001 34.5749 34.9564 34.1225 35.0432 33.686C35.1301 33.2496 35.3443 32.8487 35.659 32.534C35.9737 32.2193 36.3746 32.005 36.811 31.9182C37.2475 31.8314 37.6999 31.876 38.111 32.0463C38.5222 32.2166 38.8736 32.505 39.1208 32.875C39.368 33.245 39.5 33.68 39.5 34.125C39.4993 34.7215 39.2621 35.2934 38.8402 35.7152C38.4184 36.1371 37.8465 36.3743 37.25 36.375ZM41 42H39.5V40.5H41V42ZM43.625 36.75C43.1058 36.75 42.5983 36.596 42.1666 36.3076C41.7349 36.0192 41.3985 35.6092 41.1998 35.1295C41.0011 34.6499 40.9492 34.1221 41.0504 33.6129C41.1517 33.1037 41.4017 32.636 41.7688 32.2688C42.136 31.9017 42.6037 31.6517 43.1129 31.5504C43.6221 31.4492 44.1499 31.5011 44.6295 31.6998C45.1092 31.8985 45.5192 32.2349 45.8076 32.6666C46.096 33.0983 46.25 33.6058 46.25 34.125C46.2492 34.821 45.9724 35.4882 45.4803 35.9803C44.9882 36.4724 44.3209 36.7492 43.625 36.75Z" fill="#3E50F3"/>
<path d="M23.3484 24.3484C23.2078 24.489 23.1289 24.6798 23.1289 24.8786C23.1289 25.0775 23.2079 25.2682 23.3486 25.4088C23.4892 25.5494 23.6799 25.6284 23.8787 25.6284C24.0776 25.6284 24.2683 25.5495 24.4089 25.4089C24.8312 24.9875 25.4034 24.7509 25.9999 24.7509C26.5965 24.7509 27.1687 24.9875 27.5909 25.4089C27.7317 25.5491 27.9223 25.6278 28.1209 25.6276C28.3196 25.6274 28.51 25.5484 28.6505 25.4079C28.7909 25.2675 28.8699 25.077 28.8701 24.8784C28.8703 24.6797 28.7917 24.4891 28.6515 24.3484C27.9477 23.6463 26.9941 23.252 25.9999 23.252C25.0058 23.252 24.0522 23.6463 23.3484 24.3484Z" fill="#3E50F3"/>
<path d="M30.5077 23.2423C30.656 23.2423 30.801 23.1983 30.9243 23.1159C31.0476 23.0335 31.1437 22.9163 31.2005 22.7793C31.2572 22.6423 31.2721 22.4915 31.2432 22.346C31.2142 22.2005 31.1428 22.0669 31.038 21.962C30.3764 21.3004 29.5909 20.7755 28.7265 20.4174C27.862 20.0593 26.9355 19.875 25.9998 19.875C25.0641 19.875 24.1376 20.0593 23.2732 20.4174C22.4087 20.7755 21.6233 21.3004 20.9617 21.962C20.8211 22.1027 20.7422 22.2934 20.7422 22.4923C20.7422 22.6911 20.8212 22.8818 20.9618 23.0224C21.1024 23.163 21.2931 23.242 21.492 23.2421C21.6908 23.2421 21.8816 23.1631 22.0222 23.0226C22.5446 22.5002 23.1647 22.0859 23.8472 21.8032C24.5296 21.5205 25.2611 21.375 25.9998 21.375C26.7385 21.375 27.47 21.5205 28.1525 21.8032C28.835 22.0859 29.4551 22.5002 29.9774 23.0226C30.047 23.0923 30.1296 23.1477 30.2206 23.1854C30.3116 23.2231 30.4092 23.2424 30.5077 23.2423Z" fill="#3E50F3"/>
<path d="M32.6291 21.121C32.7775 21.121 32.9224 21.077 33.0458 20.9945C33.1691 20.9121 33.2652 20.795 33.322 20.658C33.3787 20.5209 33.3936 20.3702 33.3646 20.2247C33.3357 20.0792 33.2643 19.9456 33.1594 19.8407C31.2591 17.9447 28.6844 16.8799 26 16.8799C23.3156 16.8799 20.7409 17.9447 18.8406 19.8407C18.7 19.9813 18.6211 20.1721 18.6211 20.3709C18.6211 20.5698 18.7001 20.7605 18.8407 20.9011C18.9813 21.0417 19.172 21.1207 19.3709 21.1207C19.5697 21.1208 19.7605 21.0418 19.9011 20.9012C21.52 19.2863 23.7133 18.3793 26 18.3793C28.2867 18.3793 30.48 19.2863 32.0989 20.9012C32.1684 20.971 32.2511 21.0263 32.3421 21.064C32.4331 21.1017 32.5306 21.1211 32.6291 21.121Z" fill="#3E50F3"/>
<path d="M34.7506 18.9994C34.8989 18.9994 35.0439 18.9554 35.1672 18.873C35.2905 18.7906 35.3866 18.6735 35.4434 18.5364C35.5001 18.3994 35.515 18.2486 35.4861 18.1032C35.4571 17.9577 35.3857 17.8241 35.2809 17.7192C32.8176 15.2614 29.4799 13.8811 26.0002 13.8811C22.5204 13.8811 19.1828 15.2614 16.7195 17.7192C16.5789 17.8598 16.5 18.0506 16.5 18.2494C16.5 18.4483 16.579 18.639 16.7196 18.7796C16.8603 18.9202 17.051 18.9992 17.2498 18.9992C17.4487 18.9992 17.6394 18.9203 17.78 18.7797C19.9619 16.603 22.9181 15.3806 26.0002 15.3806C29.0822 15.3806 32.0384 16.603 34.2203 18.7797C34.2899 18.8495 34.3725 18.9048 34.4635 18.9425C34.5545 18.9802 34.6521 18.9995 34.7506 18.9994Z" fill="#3E50F3"/>
</svg>
