<svg width="20" height="20" viewBox="0 0 20 20" fill="none" xmlns="http://www.w3.org/2000/svg">
<path d="M6.50033 1.66675H13.5003C16.167 1.66675 18.3337 3.83342 18.3337 6.50008V13.5001C18.3337 14.782 17.8244 16.0113 16.918 16.9178C16.0116 17.8242 14.7822 18.3334 13.5003 18.3334H6.50033C3.83366 18.3334 1.66699 16.1667 1.66699 13.5001V6.50008C1.66699 5.2182 2.17622 3.98882 3.08264 3.0824C3.98907 2.17597 5.21845 1.66675 6.50033 1.66675ZM6.33366 3.33341C5.53801 3.33341 4.77495 3.64949 4.21234 4.21209C3.64973 4.7747 3.33366 5.53777 3.33366 6.33342V13.6667C3.33366 15.3251 4.67533 16.6667 6.33366 16.6667H13.667C14.4626 16.6667 15.2257 16.3507 15.7883 15.7881C16.3509 15.2255 16.667 14.4624 16.667 13.6667V6.33342C16.667 4.67508 15.3253 3.33341 13.667 3.33341H6.33366ZM14.3753 4.58341C14.6516 4.58341 14.9165 4.69316 15.1119 4.88851C15.3072 5.08386 15.417 5.34881 15.417 5.62508C15.417 5.90135 15.3072 6.1663 15.1119 6.36165C14.9165 6.557 14.6516 6.66675 14.3753 6.66675C14.0991 6.66675 13.8341 6.557 13.6388 6.36165C13.4434 6.1663 13.3337 5.90135 13.3337 5.62508C13.3337 5.34881 13.4434 5.08386 13.6388 4.88851C13.8341 4.69316 14.0991 4.58341 14.3753 4.58341ZM10.0003 5.83342C11.1054 5.83342 12.1652 6.2724 12.9466 7.0538C13.728 7.83521 14.167 8.89501 14.167 10.0001C14.167 11.1052 13.728 12.165 12.9466 12.9464C12.1652 13.7278 11.1054 14.1667 10.0003 14.1667C8.89526 14.1667 7.83545 13.7278 7.05405 12.9464C6.27265 12.165 5.83366 11.1052 5.83366 10.0001C5.83366 8.89501 6.27265 7.83521 7.05405 7.0538C7.83545 6.2724 8.89526 5.83342 10.0003 5.83342ZM10.0003 7.50008C9.33728 7.50008 8.7014 7.76347 8.23256 8.23231C7.76372 8.70116 7.50033 9.33704 7.50033 10.0001C7.50033 10.6631 7.76372 11.299 8.23256 11.7678C8.7014 12.2367 9.33728 12.5001 10.0003 12.5001C10.6634 12.5001 11.2993 12.2367 11.7681 11.7678C12.2369 11.299 12.5003 10.6631 12.5003 10.0001C12.5003 9.33704 12.2369 8.70116 11.7681 8.23231C11.2993 7.76347 10.6634 7.50008 10.0003 7.50008Z" fill="#3E50F3"/>
</svg>
